<svg width="320" height="320" viewBox="0 0 320 320" fill="none" xmlns="http://www.w3.org/2000/svg">
<path d="M260 130C260 158.688 250.688 185.188 235 206.688L314.125 285.875C321.938 293.688 321.938 306.375 314.125 314.188C306.312 322 293.625 322 285.812 314.188L206.688 235C185.188 250.75 158.688 260 130 260C58.1875 260 0 201.812 0 130C0 58.1875 58.1875 0 130 0C201.812 0 260 58.1875 260 130ZM130 220C141.819 220 153.522 217.672 164.442 213.149C175.361 208.626 185.282 201.997 193.64 193.64C201.997 185.282 208.626 175.361 213.149 164.442C217.672 153.522 220 141.819 220 130C220 118.181 217.672 106.478 213.149 95.5585C208.626 84.6392 201.997 74.7177 193.64 66.3604C185.282 58.0031 175.361 51.3738 164.442 46.8508C153.522 42.3279 141.819 40 130 40C118.181 40 106.478 42.3279 95.5585 46.8508C84.6392 51.3738 74.7177 58.0031 66.3604 66.3604C58.0031 74.7177 51.3738 84.6392 46.8508 95.5585C42.3279 106.478 40 118.181 40 130C40 141.819 42.3279 153.522 46.8508 164.442C51.3738 175.361 58.0031 185.282 66.3604 193.64C74.7177 201.997 84.6392 208.626 95.5585 213.149C106.478 217.672 118.181 220 130 220Z" fill="#F57C00"/>
</svg>